<svg xmlns="http://www.w3.org/2000/svg" xmlns:xlink="http://www.w3.org/1999/xlink" width="899" zoomAndPan="magnify" viewBox="0 0 674.25 620.249985" height="827" preserveAspectRatio="xMidYMid meet" version="1.0"><defs><clipPath id="02ea7403ba"><path d="M 0.03125 256 L 58 256 L 58 372 L 0.03125 372 Z M 0.03125 256 " clip-rule="nonzero"/></clipPath><clipPath id="85c92b0d44"><path d="M 615 256 L 673.46875 256 L 673.46875 372 L 615 372 Z M 615 256 " clip-rule="nonzero"/></clipPath></defs><path fill="#314fdd" d="M 238.621094 119 L 433.765625 119 C 487.40625 119 536.15625 140.933594 571.492188 176.269531 C 606.8125 211.589844 628.75 260.355469 628.75 314 C 628.75 367.640625 606.8125 416.40625 571.492188 451.726562 C 536.15625 487.0625 487.40625 508.984375 433.765625 508.984375 L 412.460938 508.984375 L 304.195312 609.878906 C 294.410156 618.96875 279.101562 618.414062 269.996094 608.644531 C 265.65625 603.976562 263.511719 598.058594 263.511719 592.152344 L 263.464844 592.152344 L 263.464844 508.984375 L 238.621094 508.984375 C 184.980469 508.984375 136.230469 487.0625 100.894531 451.726562 C 65.558594 416.40625 43.636719 367.640625 43.636719 314 C 43.636719 260.355469 65.558594 211.589844 100.894531 176.269531 C 136.230469 140.933594 184.980469 119 238.621094 119 Z M 433.765625 167.511719 L 238.621094 167.511719 C 198.363281 167.511719 161.75 184.003906 135.1875 210.566406 C 108.628906 237.109375 92.136719 273.738281 92.136719 314 C 92.136719 354.257812 108.628906 390.871094 135.1875 417.433594 C 161.75 443.996094 198.363281 460.484375 238.621094 460.484375 L 287.703125 460.484375 C 301.101562 460.484375 311.960938 471.34375 311.960938 484.742188 L 311.960938 536.476562 L 385.316406 468.109375 C 389.75 463.421875 396.015625 460.484375 402.992188 460.484375 L 433.765625 460.484375 C 474.007812 460.484375 510.640625 443.996094 537.199219 417.433594 C 563.746094 390.871094 580.238281 354.257812 580.238281 314 C 580.238281 273.738281 563.746094 237.109375 537.199219 210.566406 C 510.640625 184.003906 474.007812 167.511719 433.765625 167.511719 Z M 433.765625 167.511719 " fill-opacity="1" fill-rule="nonzero"/><path fill="#314fdd" d="M 319.710938 45.691406 L 352.679688 45.691406 L 352.679688 145.75 L 319.710938 145.75 Z M 319.710938 45.691406 " fill-opacity="1" fill-rule="evenodd"/><path fill="#314fdd" d="M 336.1875 0.222656 C 360.046875 0.222656 379.398438 19.574219 379.398438 43.417969 C 379.398438 67.28125 360.046875 86.628906 336.1875 86.628906 C 312.339844 86.628906 292.992188 67.28125 292.992188 43.417969 C 292.992188 19.574219 312.339844 0.222656 336.1875 0.222656 Z M 336.1875 0.222656 " fill-opacity="1" fill-rule="evenodd"/><g clip-path="url(#02ea7403ba)"><path fill="#314fdd" d="M 57.683594 371.648438 C 25.835938 371.648438 0.03125 345.832031 0.03125 314 C 0.03125 282.167969 25.835938 256.347656 57.683594 256.347656 Z M 57.683594 371.648438 " fill-opacity="1" fill-rule="evenodd"/></g><g clip-path="url(#85c92b0d44)"><path fill="#314fdd" d="M 615.507812 371.648438 C 647.339844 371.648438 673.144531 345.832031 673.144531 314 C 673.144531 282.167969 647.339844 256.347656 615.507812 256.347656 Z M 615.507812 371.648438 " fill-opacity="1" fill-rule="evenodd"/></g><path fill="#314fdd" d="M 257.199219 245 C 271.292969 245 282.828125 256.539062 282.828125 270.628906 L 282.828125 348.230469 C 282.828125 362.324219 271.292969 373.84375 257.199219 373.84375 C 243.105469 373.84375 231.566406 362.324219 231.566406 348.230469 L 231.566406 270.628906 C 231.566406 256.539062 243.105469 245 257.199219 245 Z M 257.199219 245 " fill-opacity="1" fill-rule="evenodd"/><path fill="#314fdd" d="M 415.175781 245 L 415.191406 245 C 429.285156 245 440.820312 256.539062 440.820312 270.628906 L 440.820312 348.230469 C 440.820312 362.324219 429.285156 373.84375 415.191406 373.84375 L 415.175781 373.84375 C 401.082031 373.84375 389.558594 362.324219 389.558594 348.230469 L 389.558594 270.628906 C 389.558594 256.539062 401.082031 245 415.175781 245 Z M 415.175781 245 " fill-opacity="1" fill-rule="evenodd"/></svg>